<?xml version="1.0"?>
<svg width="640" height="480" xmlns="http://www.w3.org/2000/svg" xmlns:svg="http://www.w3.org/2000/svg">
 <!-- Created with SVG-edit - https://github.com/SVG-Edit/svgedit-->
 <g class="layer">
  <title>Layer 1</title>
  <path d="m34.5,31.5c0,0 587.000017,0 587.000017,0c0,0 -58.475098,76.000001 -58.475098,76.000001c0,0 -527.400399,0 -527.400399,0c0,0 -1.124521,-76.000001 -1.124521,-76.000001z" fill="#ffffff" id="svg_10" stroke="#000000" stroke-dasharray="null" stroke-linecap="null" stroke-linejoin="null" stroke-width="null"/>
  <path d="m41.5,368c0,0 467.000005,0 467.000005,0c0,0 -46.521073,76.000001 -46.521073,76.000001c0,0 -419.584295,0 -419.584295,0c0,0 -0.894636,-76.000001 -0.894636,-76.000001z" fill="#ffffff" id="svg_15" stroke="#000000" stroke-dasharray="null" stroke-linecap="null" stroke-linejoin="null" stroke-width="null"/>
  <path d="m37.5,202c0,0 522.999994,0 522.999994,0c0,0 -52.099616,76.000001 -52.099616,76.000001c0,0 -469.898462,0 -469.898462,0c0,0 -1.001916,-76.000001 -1.001916,-76.000001z" fill="#ffffff" id="svg_16" stroke="#000000" stroke-dasharray="null" stroke-linecap="null" stroke-linejoin="null" stroke-width="null"/>
 </g>
</svg>