<?xml version="1.0" encoding="UTF-8" standalone="no"?>
<svg width="130px" height="20px" viewBox="0 0 130 20" version="1.1" xmlns="http://www.w3.org/2000/svg" xmlns:xlink="http://www.w3.org/1999/xlink">
    <!-- Generator: Sketch 44.1 (41455) - http://www.bohemiancoding.com/sketch -->
    <title>footer_logo_bbva</title>
    <desc>Created with Sketch.</desc>
    <defs></defs>
    <g id="Home-centros" stroke="none" stroke-width="1" fill="none" fill-rule="evenodd">
        <g id="BBVA-Open-Space-Madrid" transform="translate(-208.000000, -3565.000000)" fill="#FFFFFF">
            <g id="footer" transform="translate(0.000000, 3490.000000)">
                <g id="footer_logo_bbva" transform="translate(208.000000, 74.000000)">
                    <path d="M51.768,2.828 C51.299,1.384 51.032,1.045 49.654,1.045 L46.298,1.045 L40.923,18.605 L43.654,18.605 L44.8,14.812 L51.204,14.812 L52.359,18.605 L57.111,18.605 L51.768,2.828 Z M45.58,12.238 L47.973,4.232 L50.408,12.238 L45.58,12.238 L45.58,12.238 Z" id="Fill-1"></path>
                    <path d="M25.189,7.931 L26.031,6.652 C27.855,3.959 26.598,1.037 23.009,1.037 L15.368,1.037 L15.368,18.605 L22.743,18.605 C29.229,18.605 31.189,11.056 25.189,7.931 M19.499,16.251 L19.499,3.333 L21.756,3.333 C22.837,3.333 23.78,4.232 23.78,5.305 C23.78,5.685 23.699,6.032 23.332,6.581 L21.88,8.775 C23.4,9.14 24.418,10.309 24.418,12.498 C24.418,15.13 22.837,16.251 20.75,16.251 L19.499,16.251" id="Fill-2"></path>
                    <path d="M10.313,7.931 L11.174,6.652 C12.977,3.959 11.739,1.037 8.157,1.037 L0.501,1.037 L0.501,18.605 L7.887,18.605 C14.363,18.605 16.322,11.056 10.313,7.931 M5.891,16.251 L4.635,16.251 L4.635,3.333 L6.891,3.333 C7.977,3.333 8.922,4.232 8.922,5.305 C8.922,5.685 8.836,6.032 8.473,6.581 L7.012,8.775 C8.53,9.14 9.557,10.309 9.557,12.498 C9.557,15.13 7.977,16.251 5.891,16.251" id="Fill-3"></path>
                    <path d="M32.899,3.331 C32.274,1.351 31.961,1.037 30.758,1.037 L27.657,1.037 L33.398,18.605 L37.624,18.605 L42.974,1.037 L40.189,1.037 L36.235,14.375 L32.899,3.331" id="Fill-4"></path>
                    <path d="M63.848,4.571 C63.848,2.295 65.15,0.993 66.854,0.993 C68.165,0.993 68.98,1.565 69.458,2.595 L68.465,3.185 C68.194,2.539 67.688,2.071 66.854,2.071 C65.674,2.071 65.019,3.045 65.019,4.562 C65.019,6.164 65.712,7.138 66.92,7.138 C67.782,7.138 68.343,6.623 68.615,5.845 L69.627,6.304 C69.215,7.447 68.372,8.187 66.92,8.187 C65.131,8.187 63.848,6.913 63.848,4.571" id="Fill-5"></path>
                    <path d="M70.694,8.055 L70.694,3.091 L71.752,3.091 L71.846,3.897 L71.855,3.897 C72.155,3.429 72.679,2.988 73.607,2.988 L73.654,2.988 L73.757,4.047 C73.682,4.028 73.532,4.028 73.457,4.028 C72.698,4.028 72.164,4.375 71.846,4.909 L71.846,8.055 L70.694,8.055" id="Fill-6"></path>
                    <path d="M77.522,5.096 C77.465,4.365 77.081,3.925 76.388,3.925 C75.817,3.925 75.302,4.3 75.189,5.096 L77.522,5.096 Z M74.028,5.573 C74.028,3.71 75.367,2.988 76.398,2.988 C77.475,2.988 78.58,3.653 78.58,5.677 L78.58,5.948 L75.18,5.948 C75.218,6.819 75.779,7.241 76.529,7.241 C77.147,7.241 77.681,6.978 78.065,6.604 L78.524,7.362 C77.962,7.896 77.315,8.159 76.463,8.159 C75.18,8.159 74.028,7.4 74.028,5.573 L74.028,5.573 Z" id="Fill-7"></path>
                    <path d="M82.448,6.669 L82.448,5.573 C80.846,5.798 80.331,6.145 80.331,6.641 C80.331,7.035 80.603,7.241 81.034,7.241 C81.624,7.241 82.092,7.025 82.448,6.669 Z M79.207,6.829 C79.207,5.733 80.125,5.058 82.448,4.796 L82.448,4.646 C82.448,4.187 82.176,3.934 81.586,3.934 C80.94,3.934 80.444,4.215 79.985,4.599 L79.357,3.897 C79.882,3.41 80.593,2.988 81.736,2.988 C83.019,2.988 83.572,3.625 83.572,4.787 L83.572,8.055 L82.542,8.055 L82.448,7.419 C81.97,7.906 81.361,8.131 80.622,8.131 C79.807,8.131 79.207,7.643 79.207,6.829 L79.207,6.829 Z" id="Fill-8"></path>
                    <path d="M84.817,8.055 L84.817,3.091 L85.875,3.091 L85.969,3.794 C86.334,3.382 86.934,2.988 87.758,2.988 C88.657,2.988 89.219,3.457 89.219,4.44 L89.219,8.055 L88.076,8.055 L88.076,4.777 C88.076,4.225 87.852,3.944 87.318,3.944 C86.821,3.944 86.4,4.197 85.969,4.59 L85.969,8.055 L84.817,8.055" id="Fill-9"></path>
                    <path d="M93.743,6.566 L93.743,4.543 C93.34,4.15 92.993,3.944 92.516,3.944 C91.813,3.944 91.345,4.478 91.345,5.592 C91.345,6.613 91.794,7.185 92.534,7.185 C93.012,7.185 93.396,6.922 93.743,6.566 Z M90.193,5.602 C90.193,3.878 91.036,2.988 92.178,2.988 C92.853,2.988 93.396,3.223 93.743,3.653 L93.743,1.209 L94.895,1.04 L94.895,8.055 L93.836,8.055 L93.743,7.4 C93.405,7.821 92.9,8.131 92.16,8.131 C91.026,8.131 90.193,7.325 90.193,5.602 L90.193,5.602 Z" id="Fill-10"></path>
                    <path d="M99.605,5.583 C99.605,4.665 99.203,3.972 98.331,3.972 C97.498,3.972 97.058,4.599 97.058,5.583 C97.058,6.529 97.442,7.194 98.331,7.194 C99.165,7.194 99.605,6.529 99.605,5.583 Z M95.906,5.573 C95.906,3.747 97.114,2.988 98.331,2.988 C99.54,2.988 100.748,3.747 100.748,5.573 C100.748,7.391 99.54,8.159 98.331,8.159 C97.123,8.159 95.906,7.391 95.906,5.573 L95.906,5.573 Z" id="Fill-11"></path>
                    <path d="M68.934,15.221 C68.934,13.648 68.147,12.702 66.976,12.702 C65.805,12.702 65.019,13.648 65.019,15.221 C65.019,16.795 65.805,17.769 66.976,17.769 C68.147,17.769 68.934,16.795 68.934,15.221 Z M63.848,15.221 C63.848,12.889 65.299,11.625 66.976,11.625 C68.643,11.625 70.095,12.889 70.095,15.221 C70.095,17.553 68.643,18.818 66.976,18.818 C65.299,18.818 63.848,17.553 63.848,15.221 L63.848,15.221 Z" id="Fill-12"></path>
                    <path d="M74.656,16.205 C74.656,15.174 74.206,14.603 73.466,14.603 C72.988,14.603 72.604,14.865 72.258,15.221 L72.258,17.254 C72.661,17.647 73.007,17.853 73.485,17.853 C74.197,17.853 74.656,17.357 74.656,16.205 Z M71.106,20.644 L71.106,13.723 L72.164,13.723 L72.258,14.369 C72.595,13.957 73.101,13.62 73.841,13.62 C74.974,13.62 75.808,14.472 75.808,16.195 C75.808,17.919 74.965,18.762 73.822,18.762 C73.148,18.762 72.633,18.556 72.258,18.143 L72.258,20.476 L71.106,20.644 L71.106,20.644 Z" id="Fill-13"></path>
                    <path d="M80.247,16.214 C80.247,15.296 79.844,14.603 78.973,14.603 C78.139,14.603 77.699,15.231 77.699,16.214 C77.699,17.16 78.083,17.825 78.973,17.825 C79.807,17.825 80.247,17.16 80.247,16.214 Z M76.547,16.205 C76.547,14.378 77.756,13.62 78.973,13.62 C80.181,13.62 81.389,14.378 81.389,16.205 C81.389,18.022 80.181,18.79 78.973,18.79 C77.765,18.79 76.547,18.022 76.547,16.205 L76.547,16.205 Z" id="Fill-14"></path>
                    <path d="M82.41,18.687 L82.41,13.723 L83.468,13.723 L83.562,14.528 L83.571,14.528 C83.871,14.06 84.396,13.62 85.323,13.62 L85.37,13.62 L85.473,14.678 C85.398,14.659 85.248,14.659 85.173,14.659 C84.414,14.659 83.88,15.006 83.562,15.54 L83.562,18.687 L82.41,18.687" id="Fill-15"></path>
                    <path d="M86.634,17.319 L86.634,14.631 L85.791,14.631 L85.791,13.723 L86.634,13.723 L86.634,12.065 L87.777,11.896 L87.777,13.723 L89.06,13.723 L89.06,14.631 L87.777,14.631 L87.777,17.141 C87.777,17.675 88.001,17.844 88.47,17.844 C88.657,17.844 88.835,17.806 88.975,17.769 L89.069,18.677 C88.929,18.706 88.47,18.752 88.16,18.752 C87.111,18.752 86.634,18.396 86.634,17.319" id="Fill-16"></path>
                    <path d="M89.968,17.338 L89.968,13.723 L91.12,13.723 L91.12,17.029 C91.12,17.553 91.335,17.816 91.869,17.816 C92.366,17.816 92.787,17.553 93.218,17.16 L93.218,13.723 L94.37,13.723 L94.37,18.687 L93.312,18.687 L93.218,17.994 C92.853,18.387 92.253,18.79 91.438,18.79 C90.53,18.79 89.968,18.321 89.968,17.338" id="Fill-17"></path>
                    <path d="M95.662,18.687 L95.662,13.723 L96.72,13.723 L96.814,14.425 C97.18,14.013 97.779,13.62 98.603,13.62 C99.502,13.62 100.064,14.088 100.064,15.071 L100.064,18.687 L98.921,18.687 L98.921,15.409 C98.921,14.856 98.697,14.575 98.163,14.575 C97.666,14.575 97.245,14.828 96.814,15.221 L96.814,18.687 L95.662,18.687" id="Fill-18"></path>
                    <path d="M101.366,18.687 L102.508,18.687 L102.508,13.723 L101.366,13.723 L101.366,18.687 Z M101.272,12.374 C101.272,12.027 101.506,11.765 101.928,11.765 C102.358,11.765 102.602,12.027 102.602,12.374 C102.602,12.72 102.358,12.983 101.928,12.983 C101.506,12.983 101.272,12.72 101.272,12.374 L101.272,12.374 Z" id="Fill-19"></path>
                    <path d="M107.135,17.197 L107.135,15.174 C106.732,14.781 106.386,14.575 105.908,14.575 C105.206,14.575 104.737,15.109 104.737,16.223 C104.737,17.244 105.187,17.816 105.927,17.816 C106.404,17.816 106.788,17.553 107.135,17.197 Z M103.585,16.233 C103.585,14.509 104.428,13.62 105.571,13.62 C106.245,13.62 106.788,13.854 107.135,14.285 L107.135,11.84 L108.287,11.671 L108.287,18.687 L107.229,18.687 L107.135,18.031 C106.798,18.453 106.292,18.762 105.552,18.762 C104.419,18.762 103.585,17.956 103.585,16.233 L103.585,16.233 Z" id="Fill-20"></path>
                    <path d="M112.501,17.301 L112.501,16.205 C110.9,16.429 110.384,16.776 110.384,17.272 C110.384,17.666 110.656,17.872 111.087,17.872 C111.677,17.872 112.145,17.656 112.501,17.301 Z M109.26,17.46 C109.26,16.364 110.178,15.689 112.501,15.427 L112.501,15.277 C112.501,14.819 112.229,14.566 111.639,14.566 C110.993,14.566 110.497,14.847 110.038,15.231 L109.41,14.528 C109.935,14.041 110.647,13.62 111.789,13.62 C113.073,13.62 113.625,14.257 113.625,15.418 L113.625,18.687 L112.595,18.687 L112.501,18.05 C112.024,18.537 111.415,18.762 110.675,18.762 C109.86,18.762 109.26,18.275 109.26,17.46 L109.26,17.46 Z" id="Fill-21"></path>
                    <path d="M118.148,17.197 L118.148,15.174 C117.746,14.781 117.399,14.575 116.922,14.575 C116.219,14.575 115.751,15.109 115.751,16.223 C115.751,17.244 116.2,17.816 116.94,17.816 C117.418,17.816 117.802,17.553 118.148,17.197 Z M114.599,16.233 C114.599,14.509 115.442,13.62 116.584,13.62 C117.259,13.62 117.802,13.854 118.148,14.285 L118.148,11.84 L119.301,11.671 L119.301,18.687 L118.242,18.687 L118.148,18.031 C117.811,18.453 117.306,18.762 116.566,18.762 C115.432,18.762 114.599,17.956 114.599,16.233 L114.599,16.233 Z" id="Fill-22"></path>
                    <path d="M123.805,15.727 C123.749,14.996 123.365,14.556 122.672,14.556 C122.101,14.556 121.585,14.931 121.473,15.727 L123.805,15.727 Z M120.312,16.205 C120.312,14.341 121.651,13.62 122.681,13.62 C123.758,13.62 124.864,14.285 124.864,16.308 L124.864,16.579 L121.464,16.579 C121.501,17.45 122.063,17.872 122.812,17.872 C123.43,17.872 123.964,17.61 124.349,17.235 L124.807,17.994 C124.245,18.528 123.599,18.79 122.747,18.79 C121.464,18.79 120.312,18.031 120.312,16.205 L120.312,16.205 Z" id="Fill-23"></path>
                    <path d="M125.444,18.003 L125.884,17.226 C126.334,17.61 126.952,17.9 127.598,17.9 C128.217,17.9 128.591,17.703 128.591,17.357 C128.591,16.954 128.301,16.813 127.477,16.645 C126.428,16.429 125.622,16.148 125.622,15.081 C125.622,14.2 126.353,13.62 127.449,13.62 C128.338,13.62 128.938,13.873 129.462,14.247 L129.059,15.062 C128.591,14.725 128.067,14.528 127.533,14.528 C126.971,14.528 126.699,14.734 126.699,15.034 C126.699,15.362 126.971,15.512 127.711,15.671 C128.825,15.896 129.678,16.158 129.678,17.207 C129.678,18.293 128.732,18.78 127.589,18.78 C126.634,18.78 125.922,18.425 125.444,18.003" id="Fill-24"></path>
                </g>
            </g>
        </g>
    </g>
</svg>