<?xml version="1.0" encoding="UTF-8"?>
<!DOCTYPE svg PUBLIC "-//W3C//DTD SVG 1.1//EN" "http://www.w3.org/Graphics/SVG/1.1/DTD/svg11.dtd">
<!-- Creator: CorelDRAW X7 -->
<svg xmlns="http://www.w3.org/2000/svg" xml:space="preserve" width="200mm" height="30mm" version="1.1" style="shape-rendering:geometricPrecision; text-rendering:geometricPrecision; image-rendering:optimizeQuality; fill-rule:evenodd; clip-rule:evenodd"
viewBox="0 0 20000 3000"
 xmlns:xlink="http://www.w3.org/1999/xlink">
 <defs>
  <style type="text/css">
   <![CDATA[
    .str0 {stroke:#D2CDE7;stroke-width:25}
    .fil0 {fill:#FFFCFC;fill-rule:nonzero}
    .fil1 {fill:#FFFCFC;fill-rule:nonzero;fill-opacity:0.400000}
   ]]>
  </style>
    <mask id="id0">
  <radialGradient id="id1" gradientUnits="userSpaceOnUse" cx="931.78" cy="374.15" r="0" fx="931.78" fy="374.15">
   <stop offset="0" style="stop-opacity:0.317647; stop-color:white"/>
   <stop offset="0.301961" style="stop-opacity:-2.74118; stop-color:white"/>
   <stop offset="1" style="stop-opacity:0.137255; stop-color:white"/>
  </radialGradient>
     <rect style="fill:url(#id1)" x="928" y="370" width="1516" height="2162"/>
    </mask>
    <mask id="id2">
  <radialGradient id="id3" gradientUnits="userSpaceOnUse" cx="1585.66" cy="495.54" r="0" fx="1585.66" fy="495.54">
   <stop offset="0" style="stop-opacity:0.298039; stop-color:white"/>
   <stop offset="0.6" style="stop-opacity:-2.66275; stop-color:white"/>
   <stop offset="1" style="stop-opacity:0; stop-color:white"/>
  </radialGradient>
     <rect style="fill:url(#id3)" x="1582" y="492" width="742" height="1681"/>
    </mask>
 </defs>
 <g id="Capa_x0020_1">
  <metadata id="CorelCorpID_0Corel-Layer"/>
  <path class="fil0 str0" d="M3208 1013c348,0 527,198 527,198l-160 259c0,0 -157,-143 -351,-143 -269,0 -397,198 -397,401 0,208 137,422 397,422 212,0 373,-172 373,-172l177 251c0,0 -199,236 -566,236 -440,0 -737,-313 -737,-729 0,-409 314,-723 737,-723z"/>
  <path class="fil0 str0" d="M3982 1036l490 0c143,0 212,10 273,34 159,60 259,204 259,408 0,150 -71,313 -210,384l0 3c0,0 19,26 53,85l273 491 -383 0 -250 -473 -161 0 0 473 -344 0 0 -1405zm493 637l0 0c110,0 179,-61 179,-173 0,-106 -39,-169 -212,-169l-116 0 0 342 149 0z"/>
  <polygon class="fil0 str0" points="5322,1036 6203,1036 6203,1331 5666,1331 5666,1586 6095,1586 6095,1881 5666,1881 5666,2147 6230,2147 6230,2441 5322,2441 "/>
  <path class="fil0 str0" d="M7181 2151l-438 0 -84 295 -354 0 477 -1405 362 0 478 1405 -354 0 -87 -295zm-220 -790l0 0c0,0 -31,153 -57,242l-80 273 277 0 -79 -273c-25,-89 -57,-242 -57,-242l-4 0z"/>
  <g id="_362736080">
   <path class="fil0" d="M1591 2554c-406,331 -1003,270 -1333,-136 -331,-406 -269,-1003 136,-1333 260,-212 785,-275 1315,-449 461,-151 794,-349 794,-349 0,0 -506,1937 -912,2267z"/>
   <g>
    <path class="fil0" d="M2413 425c1,-2 2,-5 2,-7 0,0 0,0 -1,1 0,2 -1,4 -1,6z"/>
    <path class="fil0" d="M388 2188c-24,-235 45,-466 194,-650 128,-158 512,-374 1108,-625 325,-137 569,-440 720,-494 -159,22 -419,260 -764,327 -635,124 -1055,258 -1213,387 -183,149 -297,361 -321,597 -25,235 44,466 194,649 62,76 134,139 214,190 -72,-114 -117,-243 -132,-381z"/>
   </g>
   <path class="fil1" d="M258 2418c166,204 400,321 642,345 44,-246 -16,-508 -186,-717 -170,-208 -414,-320 -663,-327 -26,243 41,495 207,699z"/>
   <path class="fil0" style="mask:url(#id0)" d="M2440 374c-175,103 -397,223 -794,372 -266,101 -517,111 -709,168 -23,216 26,476 248,749 247,303 333,605 339,865 10,-7 19,-14 28,-22 158,-128 374,-512 624,-1109 137,-328 211,-873 264,-1023z"/>
   <path class="fil0" style="mask:url(#id2)" d="M2018 1337c-175,295 -312,501 -432,656l143 176c106,-172 228,-417 385,-792 112,-267 146,-716 207,-881 -9,1 -16,1 -25,2 8,0 14,2 21,2 -83,156 -151,588 -299,837z"/>
  </g>
  <polygon class="fil0" points="11089,1019 11638,1019 "/>
  <path class="fil0" d="M8114 1023l590 0c275,0 462,202 462,488 0,285 -187,492 -462,492l-242 0 0 438 -348 0 0 -1418zm518 682l0 0c121,0 181,-81 181,-194 0,-114 -60,-191 -175,-191l-176 0 0 385 170 0z"/>
  <path class="fil0" d="M9372 1019l494 0c145,0 215,10 276,34 161,61 262,206 262,412 0,151 -71,316 -212,387l0 4c0,0 19,26 53,85l276 497 -387 0 -252 -479 -163 0 0 479 -347 0 0 -1419zm498 643l0 0c111,0 181,-62 181,-175 0,-107 -40,-170 -215,-170l-117 0 0 345 151 0z"/>
  <path class="fil0" d="M11366 995c429,0 742,318 742,724 0,417 -313,742 -742,742 -428,0 -742,-325 -742,-742 0,-406 314,-724 742,-724zm0 1149l0 0c212,0 383,-183 383,-425 0,-232 -171,-406 -383,-406 -212,0 -383,174 -383,406 0,242 171,425 383,425z"/>
  <polygon class="fil0" points="13580,1019 14469,1019 14469,1317 13927,1317 13927,1574 14360,1574 14360,1872 13927,1872 13927,2140 14497,2140 14497,2438 13580,2438 "/>
  <path class="fil0" d="M15394 995c351,0 531,201 531,201l-161 261c0,0 -158,-144 -355,-144 -272,0 -401,200 -401,404 0,211 139,427 401,427 214,0 377,-175 377,-175l179 254c0,0 -201,238 -571,238 -445,0 -745,-315 -745,-736 0,-412 318,-730 745,-730z"/>
  <polygon class="fil0" points="16447,1317 16016,1317 16016,1019 17224,1019 17224,1317 16794,1317 16794,2438 16447,2438 "/>
  <path class="fil0" d="M18044 995c429,0 742,318 742,724 0,417 -313,742 -742,742 -429,0 -742,-325 -742,-742 0,-406 313,-724 742,-724zm0 1149l0 0c212,0 383,-183 383,-425 0,-232 -171,-406 -383,-406 -213,0 -383,174 -383,406 0,242 170,425 383,425z"/>
  <path class="fil0" d="M19099 1995c0,0 161,147 339,147 72,0 149,-28 149,-113 0,-169 -639,-163 -639,-599 0,-262 221,-435 502,-435 306,0 457,161 457,161l-147 284c0,0 -143,-125 -314,-125 -71,0 -150,31 -150,111 0,178 638,147 638,595 0,236 -180,440 -500,440 -333,0 -517,-202 -517,-202l182 -264z"/>
  <path class="fil0" d="M12606 1856l-468 -837 395 0 160 341c46,97 86,205 86,205l4 0c0,0 39,-108 85,-205l159 -341 394 0 -468 837 0 582 -347 0 0 -582z"/>
  <path class="fil0" d="M12868 1360l159 -341 394 0c0,0 -414,722 -449,843 -35,122 -19,576 -19,576l-347 0c0,0 -41,-393 262,-1078z"/>
 </g>
</svg>
